<svg width="110" height="32" viewBox="0 0 110 32" fill="none" xmlns="http://www.w3.org/2000/svg">
<g clip-path="url(#clip0_1_246)">
<path d="M105.938 9.58037C105.938 10.4338 105.792 11.2169 105.513 11.9344C105.234 12.6518 104.831 13.2755 104.304 13.8053C103.782 14.3329 103.153 14.7455 102.419 15.0363C101.689 15.327 100.871 15.4747 99.963 15.4794C99.0785 15.4747 98.2679 15.327 97.5383 15.0409C96.8136 14.7502 96.1794 14.3399 95.6525 13.8147C95.1208 13.2848 94.7156 12.6612 94.4271 11.9437C94.1386 11.231 93.9932 10.4385 93.9884 9.58037C93.9932 8.7457 94.1386 7.96963 94.4271 7.25687C94.7156 6.53943 95.1208 5.91342 95.6525 5.37416C96.1794 4.8349 96.8112 4.41757 97.5383 4.11277C98.2679 3.81266 99.0785 3.66026 99.963 3.65557C100.869 3.66026 101.689 3.81266 102.419 4.11277C103.153 4.40819 103.782 4.83021 104.304 5.36478C104.831 5.89935 105.234 6.5277 105.513 7.24515C105.792 7.9626 105.938 8.741 105.938 9.58272M109.998 9.58272C109.993 8.08921 109.75 6.75513 109.268 5.5758C108.787 4.39177 108.1 3.38829 107.211 2.56064C106.321 1.73065 105.263 1.09996 104.037 0.663862C102.817 0.223078 101.453 0.00737474 99.963 0.00268555C98.4729 0.00737474 97.114 0.225422 95.8885 0.663862C94.6631 1.09996 93.6069 1.73065 92.7153 2.56064C91.826 3.38829 91.1394 4.39177 90.6578 5.5758C90.181 6.75513 89.9331 8.09155 89.9283 9.58272C89.9331 11.0739 90.181 12.4103 90.6578 13.5896C91.1394 14.7737 91.826 15.7748 92.7153 16.6048C93.6046 17.4348 94.6607 18.0655 95.8885 18.5016C97.114 18.9424 98.4729 19.1581 99.963 19.1627C101.453 19.1581 102.817 18.94 104.037 18.5016C105.263 18.0655 106.319 17.4348 107.211 16.6048C108.1 15.7748 108.787 14.7737 109.268 13.5896C109.75 12.4103 109.993 11.0739 109.998 9.58272ZM78.9948 18.7196H83.1097V4.07291H88.7648V0.44347H73.3421V4.07291H78.9948V18.7196ZM65.1646 13.5498C66.3471 13.531 67.3818 13.3528 68.2711 13.0199C69.1604 12.6799 69.8995 12.2204 70.4955 11.6225C71.0891 11.0317 71.5349 10.3424 71.8306 9.55693C72.1262 8.76914 72.2764 7.91571 72.2764 6.99897C72.2764 6.08223 72.131 5.27569 71.833 4.4879C71.5373 3.70012 71.0939 3.00377 70.5002 2.39887C69.9066 1.79396 69.1699 1.32035 68.2759 0.971005C67.3866 0.626349 66.3519 0.448159 65.1622 0.44347H56.4031V18.7173H60.5442V13.5474H65.1622L65.1646 13.5498ZM60.5466 4.30971H65.1646C65.8203 4.3144 66.3686 4.44804 66.8097 4.70126C67.2483 4.95682 67.5797 5.2921 67.8062 5.71178C68.0279 6.12912 68.1376 6.58163 68.1376 7.07868C68.1376 7.57574 68.0279 8.02825 67.811 8.4409C67.5893 8.85355 67.2626 9.18413 66.8192 9.43266C66.3805 9.68588 65.8274 9.81014 65.1646 9.81952H60.5466V4.30737V4.30971ZM40.5345 0.44347H35.7568V0.652139L42.8709 11.4607V18.7173H47.0121V11.4607L54.4433 0.652139V0.44347H49.6918L44.9928 7.7L40.5345 0.44347ZM28.3494 3.94161C28.8309 3.9463 29.2529 4.03305 29.5962 4.19952C29.9467 4.36364 30.2328 4.58169 30.4593 4.856C30.6858 5.12563 30.8527 5.42574 30.9647 5.74695C31.0744 6.06816 31.1316 6.39172 31.1364 6.70824C31.1364 6.99897 31.0839 7.29439 30.9766 7.59215C30.8693 7.89226 30.7072 8.16658 30.4855 8.4198C30.2638 8.67301 29.9801 8.87699 29.6368 9.02939C29.2911 9.18648 28.881 9.26385 28.4018 9.26854H23.6765V3.94161H28.3494ZM36.0214 18.4031L30.9242 12.347C31.8087 12.0328 32.5311 11.6694 33.0913 11.2544C33.654 10.8418 34.0903 10.3893 34.3954 9.89689C34.7054 9.39984 34.9175 8.87934 35.0415 8.32601C35.1607 7.77269 35.2227 7.19826 35.2227 6.60273C35.2227 5.79384 35.0725 5.01778 34.7793 4.28392C34.4836 3.54772 34.045 2.89592 33.4656 2.3168C32.8863 1.74238 32.1687 1.28518 31.3152 0.949903C30.4569 0.619315 29.4699 0.450504 28.347 0.441126H19.5353V18.7173H23.6765V12.7128H26.6757L31.4272 18.7173H36.019V18.4031H36.0214ZM14.493 13.6787C14.2093 13.953 13.8874 14.2016 13.5202 14.4149C13.1531 14.633 12.7645 14.8159 12.3473 14.9683C11.9348 15.116 11.5248 15.2332 11.1123 15.3129C10.6975 15.3903 10.3017 15.4301 9.92741 15.4301C9.0596 15.4255 8.29907 15.3129 7.64821 15.0949C7.00212 14.8721 6.44901 14.572 5.99841 14.1945C5.54782 13.8124 5.18067 13.381 4.90173 12.8933C4.62279 12.4056 4.41537 11.8921 4.28663 11.3529C4.15789 10.8136 4.09113 10.2744 4.08636 9.73981C4.08159 9.20055 4.14358 8.6566 4.27709 8.10796C4.41298 7.55464 4.62755 7.02476 4.91365 6.52067C5.20451 6.01658 5.58119 5.56407 6.03656 5.16784C6.49669 4.76691 7.0498 4.45508 7.69589 4.21827C8.33721 3.9885 9.08105 3.87127 9.92502 3.86658C10.4257 3.86658 10.924 3.91348 11.4342 4.01898C11.9372 4.12449 12.4212 4.28861 12.8861 4.51135C13.351 4.73877 13.7706 5.02482 14.1473 5.3812L16.7483 2.84903C15.7875 1.92291 14.7314 1.21719 13.5775 0.743579C12.4236 0.265281 11.2053 0.0261315 9.92741 0.0261315C8.56609 0.0355099 7.34304 0.218389 6.27258 0.579457C5.19735 0.940525 4.26755 1.43992 3.47603 2.07531C2.68928 2.70601 2.03365 3.43752 1.5163 4.26048C1.00372 5.08343 0.617497 5.96031 0.367167 6.88877C0.114452 7.81958 -0.00475279 8.75742 1.54062e-05 9.71167C0.00478361 10.7128 0.123989 11.6835 0.362399 12.6143C0.600809 13.5451 0.96796 14.4079 1.46385 15.2027C1.95975 15.9999 2.60107 16.6915 3.37829 17.2871C4.15789 17.8826 5.09007 18.3492 6.17483 18.6798C7.2596 19.015 8.51125 19.1838 9.92741 19.1885C11.3126 19.1932 12.6071 18.9752 13.8159 18.5391C15.0246 18.1006 16.107 17.4207 17.0678 16.4993L14.493 13.6811V13.6787Z" fill="url(#paint0_radial_1_246)"/>
<path d="M107.802 22.8036C107.487 22.4425 107.153 22.1612 106.803 21.9572C106.455 21.7509 106.076 21.6078 105.673 21.5258C105.27 21.4414 104.831 21.4015 104.359 21.4039C103.978 21.4039 103.608 21.4437 103.251 21.5187C102.895 21.5938 102.564 21.7063 102.254 21.8587C101.949 22.0088 101.68 22.194 101.451 22.4167C101.219 22.6371 101.041 22.895 100.907 23.1881C100.778 23.4788 100.709 23.8071 100.704 24.1681C100.704 24.5949 100.762 24.9583 100.888 25.2631C101.014 25.5679 101.191 25.8211 101.42 26.0251C101.651 26.229 101.918 26.3932 102.228 26.5198C102.535 26.644 102.872 26.7425 103.234 26.8105C103.599 26.8785 103.975 26.9324 104.369 26.9652C104.996 27.0121 105.463 27.1341 105.773 27.3263C106.083 27.5186 106.236 27.807 106.228 28.1844C106.228 28.4025 106.147 28.5901 105.992 28.7518C105.837 28.9136 105.623 29.0402 105.346 29.127C105.072 29.2161 104.748 29.2583 104.381 29.2606C104.145 29.2606 103.899 29.2372 103.644 29.1856C103.389 29.1363 103.136 29.0613 102.886 28.9535C102.633 28.8503 102.395 28.7167 102.168 28.5525C101.942 28.3931 101.739 28.1985 101.56 27.9758L100.335 29.2348C100.533 29.5537 100.776 29.8303 101.069 30.0648C101.362 30.2993 101.687 30.4939 102.047 30.651C102.404 30.8034 102.781 30.9182 103.177 30.9956C103.57 31.0706 103.968 31.1058 104.371 31.1035C104.772 31.1035 105.163 31.0636 105.542 30.9886C105.921 30.9159 106.274 30.8034 106.603 30.6533C106.929 30.5009 107.218 30.311 107.466 30.0836C107.714 29.8514 107.907 29.5795 108.047 29.2653C108.188 28.9488 108.257 28.5901 108.26 28.1868C108.26 27.7671 108.193 27.4013 108.067 27.0895C107.94 26.7753 107.761 26.5104 107.535 26.2877C107.308 26.0673 107.046 25.8867 106.748 25.7437C106.45 25.5983 106.126 25.4881 105.78 25.4084C105.434 25.3287 105.079 25.2748 104.712 25.2443C104.416 25.2209 104.142 25.188 103.901 25.1458C103.658 25.106 103.449 25.0474 103.272 24.97C103.093 24.895 102.96 24.7918 102.864 24.6582C102.767 24.5269 102.719 24.3581 102.719 24.1517C102.724 23.9431 102.798 23.7649 102.943 23.6148C103.091 23.4648 103.289 23.3499 103.537 23.2725C103.782 23.1928 104.059 23.1506 104.366 23.1506C104.612 23.1506 104.865 23.1764 105.129 23.2303C105.392 23.2842 105.644 23.3663 105.88 23.4812C106.121 23.5937 106.328 23.7391 106.503 23.9149L107.795 22.7989L107.802 22.8036ZM88.8221 23.4648C89.0629 23.4648 89.2703 23.5093 89.4419 23.5914C89.616 23.6734 89.759 23.7813 89.8711 23.9173C89.9831 24.0509 90.0666 24.201 90.1214 24.3604C90.1762 24.5198 90.2048 24.6793 90.2072 24.8387C90.2072 24.9841 90.181 25.1318 90.1285 25.2771C90.0761 25.4272 89.995 25.5632 89.8854 25.6874C89.7757 25.8117 89.635 25.9149 89.4634 25.9899C89.2917 26.0673 89.0867 26.1071 88.8507 26.1095H86.5023V23.4648H88.8221ZM92.6342 30.6486L90.1023 27.6405C90.541 27.4857 90.901 27.3029 91.1799 27.0989C91.4589 26.8926 91.6758 26.6698 91.8284 26.4236C91.981 26.1775 92.0883 25.9172 92.1503 25.6429C92.2099 25.3686 92.2409 25.0825 92.2409 24.7871C92.2409 24.3862 92.167 23.9993 92.0215 23.6359C91.8737 23.2702 91.6568 22.9466 91.3683 22.6582C91.0798 22.3722 90.7246 22.1471 90.3002 21.9806C89.8735 21.8165 89.3847 21.7321 88.8244 21.7274H84.4472V30.8057H86.5047V27.8234H87.9948L90.355 30.8057H92.6366V30.651L92.6342 30.6486ZM75.7763 28.937H70.7649V27.1083H75.3138V25.3311H70.7649V23.5796H75.5927V21.7251H68.7479V30.8034H75.7763V28.937ZM53.802 23.5539H55.5567C56.0359 23.5539 56.4412 23.6312 56.7702 23.7789C57.0968 23.9266 57.3615 24.1212 57.5594 24.3721C57.7572 24.6206 57.9003 24.8997 57.9861 25.2115C58.0743 25.521 58.1172 25.8422 58.1148 26.1728C58.1148 26.4354 58.0934 26.7003 58.0409 26.9629C57.9909 27.2255 57.9074 27.4764 57.7906 27.7108C57.6738 27.9476 57.5188 28.1563 57.3233 28.3392C57.1278 28.5221 56.8847 28.6651 56.5914 28.7706C56.3005 28.8761 55.9572 28.93 55.5567 28.9324H53.802V23.5492V23.5539ZM51.7708 21.7251V30.8034H55.5543C56.2004 30.8034 56.7726 30.7166 57.2733 30.5525C57.7715 30.3884 58.2031 30.1586 58.5654 29.8655C58.9278 29.5724 59.2258 29.2325 59.4571 28.8456C59.6931 28.4588 59.8648 28.0391 59.9768 27.5889C60.0889 27.1387 60.1437 26.6769 60.1437 26.1986C60.1437 25.7203 60.0865 25.2631 59.9721 24.8223C59.8552 24.3815 59.6788 23.9735 59.4452 23.5984C59.2068 23.2233 58.9064 22.895 58.544 22.616C58.1792 22.337 57.7477 22.119 57.2542 21.9642C56.7583 21.8095 56.1909 21.7274 55.5543 21.7274H51.7708V21.7251ZM40.0696 27.4576H36.8916L38.4866 23.7742L40.0696 27.4576ZM41.5191 30.8034H43.7483L39.6071 21.7251H37.366L33.2248 30.8034H35.4397L36.112 29.2465H40.8468L41.5191 30.8034ZM22.0768 23.4624C22.3152 23.4624 22.525 23.507 22.6967 23.589C22.8707 23.6711 23.0137 23.7789 23.1258 23.9149C23.2379 24.0486 23.3213 24.1986 23.3761 24.3581C23.431 24.5175 23.4596 24.6769 23.462 24.8363C23.462 24.9817 23.4357 25.1294 23.3833 25.2748C23.3308 25.4248 23.2498 25.5608 23.1401 25.6851C23.0304 25.8094 22.8898 25.9125 22.7181 25.9875C22.5465 26.0649 22.3414 26.1048 22.1054 26.1071H19.7571V23.4624H22.0792H22.0768ZM25.889 30.6463L23.3571 27.6381C23.7957 27.4834 24.1557 27.3005 24.4347 27.0965C24.7136 26.8902 24.9306 26.6675 25.0831 26.4213C25.2381 26.1751 25.343 25.9149 25.405 25.6405C25.4646 25.3662 25.4956 25.0802 25.4956 24.7848C25.4956 24.3838 25.4217 23.997 25.2763 23.6336C25.1284 23.2678 24.9115 22.9443 24.623 22.6559C24.3345 22.3698 23.9793 22.1448 23.5549 21.9783C23.1282 21.8142 22.6394 21.7298 22.0792 21.7251H17.702V30.8034H19.7595V27.821H21.2495L23.6098 30.8034H25.8914V30.6486L25.889 30.6463ZM6.59207 30.801V23.5257H9.40054V21.7227H1.73804V23.5257H4.54651V30.801H6.59207Z" fill="url(#paint1_radial_1_246)"/>
</g>
<defs>
<radialGradient id="paint0_radial_1_246" cx="0" cy="0" r="1" gradientUnits="userSpaceOnUse" gradientTransform="translate(55.2087 -0.000351161) rotate(90) scale(27.2155 96.256)">
<stop stop-color="white"/>
<stop offset="1" stop-color="#8D8E93"/>
</radialGradient>
<radialGradient id="paint1_radial_1_246" cx="0" cy="0" r="1" gradientUnits="userSpaceOnUse" gradientTransform="translate(55.2087 -0.000351161) rotate(90) scale(27.2155 96.256)">
<stop stop-color="white"/>
<stop offset="1" stop-color="#8D8E93"/>
</radialGradient>
<clipPath id="clip0_1_246">
<rect width="110" height="31.1034" fill="white"/>
</clipPath>
</defs>
</svg>
