<svg width="19" height="14" viewBox="0 0 19 14" fill="none" xmlns="http://www.w3.org/2000/svg">
<path d="M15.5488 1.16052C14.3781 0.623368 13.1227 0.227615 11.8102 0.000950826C11.7863 -0.00342372 11.7624 0.00750851 11.7501 0.0293735C11.5886 0.316529 11.4098 0.691146 11.2845 0.985594C9.87279 0.774239 8.46828 0.774239 7.08547 0.985594C6.96021 0.684601 6.77488 0.316529 6.6127 0.0293735C6.60039 0.00823803 6.57651 -0.0026942 6.55261 0.000950826C5.24076 0.226891 3.98539 0.622643 2.81399 1.16052C2.80385 1.1649 2.79516 1.17219 2.78939 1.18166C0.408209 4.73909 -0.244095 8.20908 0.0759034 11.636C0.0773513 11.6528 0.0867629 11.6688 0.0997947 11.679C1.67083 12.8328 3.19264 13.5332 4.6862 13.9974C4.7101 14.0047 4.73543 13.996 4.75064 13.9763C5.10394 13.4938 5.41887 12.9851 5.6889 12.4501C5.70484 12.4188 5.68963 12.3816 5.65706 12.3692C5.15751 12.1797 4.68185 11.9487 4.2243 11.6863C4.1881 11.6652 4.18521 11.6134 4.2185 11.5887C4.31479 11.5165 4.4111 11.4414 4.50304 11.3656C4.51967 11.3518 4.54285 11.3489 4.56241 11.3576C7.56835 12.73 10.8226 12.73 13.7931 11.3576C13.8127 11.3481 13.8359 11.3511 13.8532 11.3649C13.9452 11.4407 14.0415 11.5165 14.1385 11.5887C14.1718 11.6134 14.1696 11.6652 14.1334 11.6863C13.6758 11.9538 13.2002 12.1797 12.6999 12.3685C12.6673 12.3809 12.6529 12.4188 12.6688 12.4501C12.9446 12.9844 13.2596 13.4931 13.6063 13.9756C13.6208 13.996 13.6469 14.0047 13.6708 13.9974C15.1716 13.5332 16.6934 12.8328 18.2644 11.679C18.2782 11.6688 18.2869 11.6535 18.2883 11.6368C18.6713 7.67482 17.6469 4.23329 15.5727 1.18238C15.5676 1.17219 15.5589 1.1649 15.5488 1.16052ZM6.13779 9.54938C5.23279 9.54938 4.4871 8.71853 4.4871 7.69815C4.4871 6.67778 5.21833 5.84693 6.13779 5.84693C7.06446 5.84693 7.80294 6.68508 7.78845 7.69815C7.78845 8.71853 7.05722 9.54938 6.13779 9.54938ZM12.2409 9.54938C11.3359 9.54938 10.5903 8.71853 10.5903 7.69815C10.5903 6.67778 11.3215 5.84693 12.2409 5.84693C13.1676 5.84693 13.9061 6.68508 13.8916 7.69815C13.8916 8.71853 13.1676 9.54938 12.2409 9.54938Z" fill="white"/>
</svg>
